{
	"asset":{
		"generator":"Khronos glTF Blender I/O v3.6.27",
		"version":"2.0"
	},
	"extensionsUsed":[
		"KHR_materials_clearcoat",
		"KHR_materials_specular",
		"KHR_materials_ior"
	],
	"scene":0,
	"scenes":[
		{
			"name":"Scene",
			"nodes":[
				0
			]
		}
	],
	"nodes":[
		{
			"mesh":0,
			"name":"Cone.001",
			"translation":[
				-1.3653903007507324,
				0.7139567136764526,
				0.07631876319646835
			]
		}
	],
	"animations":[
		{
			"channels":[
				{
					"sampler":0,
					"target":{
						"node":0,
						"path":"translation"
					}
				},
				{
					"sampler":1,
					"target":{
						"node":0,
						"path":"rotation"
					}
				}
			],
			"name":"Cone.001Action",
			"samplers":[
				{
					"input":4,
					"interpolation":"LINEAR",
					"output":5
				},
				{
					"input":4,
					"interpolation":"LINEAR",
					"output":6
				}
			]
		}
	],
	"materials":[
		{
			"doubleSided":true,
			"emissiveFactor":[
				0.19999992847442627,
				0.19999992847442627,
				0.19999992847442627
			],
			"emissiveTexture":{
				"index":0
			},
			"extensions":{
				"KHR_materials_clearcoat":{
					"clearcoatFactor":1,
					"clearcoatRoughnessFactor":1
				},
				"KHR_materials_specular":{
					"specularColorFactor":[
						0,
						0,
						0
					]
				},
				"KHR_materials_ior":{
					"ior":1.4500000476837158
				}
			},
			"name":"Material",
			"pbrMetallicRoughness":{
				"baseColorTexture":{
					"index":1
				},
				"metallicFactor":0,
				"metallicRoughnessTexture":{
					"index":2
				}
			}
		}
	],
	"meshes":[
		{
			"name":"Cone.001",
			"primitives":[
				{
					"attributes":{
						"POSITION":0,
						"NORMAL":1,
						"TEXCOORD_0":2
					},
					"indices":3,
					"material":0
				}
			]
		}
	],
	"textures":[
		{
			"sampler":0,
			"source":0
		},
		{
			"sampler":0,
			"source":1
		},
		{
			"sampler":0,
			"source":2
		}
	],
	"images":[
		{
			"bufferView":4,
			"mimeType":"image/png",
			"name":"Material_Emissive"
		},
		{
			"bufferView":5,
			"mimeType":"image/png",
			"name":"Material_BaseColor"
		},
		{
			"bufferView":6,
			"mimeType":"image/png",
			"name":"Roughness"
		}
	],
	"accessors":[
		{
			"bufferView":0,
			"componentType":5126,
			"count":48,
			"max":[
				0.5183976888656616,
				0.6763906478881836,
				0.6586740016937256
			],
			"min":[
				-0.5567737221717834,
				-0.6107995510101318,
				-0.6303131580352783
			],
			"type":"VEC3"
		},
		{
			"bufferView":1,
			"componentType":5126,
			"count":48,
			"type":"VEC3"
		},
		{
			"bufferView":2,
			"componentType":5126,
			"count":48,
			"type":"VEC2"
		},
		{
			"bufferView":3,
			"componentType":5123,
			"count":138,
			"type":"SCALAR"
		},
		{
			"bufferView":7,
			"componentType":5126,
			"count":220,
			"max":[
				9.166666666666666
			],
			"min":[
				0.041666666666666664
			],
			"type":"SCALAR"
		},
		{
			"bufferView":8,
			"componentType":5126,
			"count":220,
			"type":"VEC3"
		},
		{
			"bufferView":9,
			"componentType":5126,
			"count":220,
			"type":"VEC4"
		}
	],
	"bufferViews":[
		{
			"buffer":0,
			"byteLength":576,
			"byteOffset":0,
			"target":34962
		},
		{
			"buffer":0,
			"byteLength":576,
			"byteOffset":576,
			"target":34962
		},
		{
			"buffer":0,
			"byteLength":384,
			"byteOffset":1152,
			"target":34962
		},
		{
			"buffer":0,
			"byteLength":276,
			"byteOffset":1536,
			"target":34963
		},
		{
			"buffer":0,
			"byteLength":665969,
			"byteOffset":1812
		},
		{
			"buffer":0,
			"byteLength":5357,
			"byteOffset":667784
		},
		{
			"buffer":0,
			"byteLength":4448,
			"byteOffset":673144
		},
		{
			"buffer":0,
			"byteLength":880,
			"byteOffset":677592
		},
		{
			"buffer":0,
			"byteLength":2640,
			"byteOffset":678472
		},
		{
			"buffer":0,
			"byteLength":3520,
			"byteOffset":681112
		}
	],
	"samplers":[
		{
			"magFilter":9729,
			"minFilter":9987
		}
	],
	"buffers":[
		{
			"byteLength":684632,
			"uri":"data:application/octet-stream;base64,"
		}
	]
}
